<?xml version="1.0" encoding="UTF-8" standalone="no"?>
<!-- Created with Inkscape (http://www.inkscape.org/) -->

<svg
   width="1000.0001"
   height="1000.0001"
   viewBox="0 0 264.58335 264.58335"
   version="1.1"
   id="svg1"
   xmlns="http://www.w3.org/2000/svg"
   xmlns:svg="http://www.w3.org/2000/svg">
  <defs
     id="defs1" />
  <g
     id="layer1">
    <path
       d="m 91.431572,35.436536 c -5.014011,-7.67e-4 -9.077676,4.107178 -9.077325,9.176899 v 0.01045 8.971303 h -9.074353 c -10.075516,0 -18.155144,8.077603 -18.155144,18.153168 V 198.82792 c 0,9.98482 8.079628,18.15168 18.155144,18.15168 L 96.346,217.0717 c 20.52282,-0.0272 4.13308,23.86264 16.71202,21.05327 12.19022,-2.72256 18.44556,-18.03075 30.4754,-21.14541 h 17.28025 v 0.053 l 9.09912,-0.0277 c 26.76948,-0.0827 48.61965,-22.00069 48.61965,-48.77024 v -9.10061 h -0.0208 V 71.749343 c 0,-10.026252 -8.12885,-18.153657 -18.15514,-18.153657 h -9.07385 v -8.978244 c 3.9e-4,-5.06975 -4.06382,-9.17967 -9.07782,-9.178884 -5.01403,-7.57e-4 -9.07964,4.109134 -9.07931,9.178884 v 0.01035 8.967343 H 100.51136 V 44.61888 c 3.9e-4,-5.069721 -4.065778,-9.181645 -9.079788,-9.180859 z M 73.279894,98.976324 H 200.35599 v 60.155166 h -0.0242 v 9.10061 c 0,16.95302 -13.52035,30.51509 -30.47341,30.56754 l -7.28148,0.0243 H 73.279894 Z"
       style="baseline-shift:baseline;display:inline;overflow:visible;opacity:0.5;vector-effect:none;fill:currentColor;fill-opacity:1;stroke-width:0.958669;stroke-linecap:round;stroke-linejoin:round;enable-background:accumulate;stop-color:#000000"
       id="path8-8" />
    <path
       d="m 169.34258,101.64908 a 7.387684,7.387684 0 0 0 -5.22356,2.16294 l -51.17099,51.18287 -20.039157,-20.03916 a 7.387684,7.387684 0 0 0 -10.446627,0 7.387684,7.387684 0 0 0 0,10.44662 l 25.256784,25.25679 a 7.3884227,7.3884227 0 0 0 10.44663,0 l 56.40048,-56.3886 a 7.387684,7.387684 0 0 0 0,-10.45852 7.387684,7.387684 0 0 0 -5.22356,-2.16294 z"
       style="baseline-shift:baseline;display:inline;overflow:visible;opacity:1;vector-effect:none;fill:currentColor;stroke-width:0.958669;stroke-linecap:round;stroke-linejoin:round;enable-background:accumulate;stop-color:#000000;stop-opacity:1"
       id="path10" />
    <path
       d="m 64.206038,89.998121 v 99.847599 h 89.296932 l 7.28148,-0.0242 c 16.95306,-0.0524 30.47341,-13.61453 30.47341,-30.56755 v -9.1006 h 0.0242 V 89.998121 Z M 169.34258,101.64908 a 7.387684,7.387684 0 0 1 5.22356,2.16294 7.387684,7.387684 0 0 1 0,10.45852 l -56.40048,56.3886 a 7.3884227,7.3884227 0 0 1 -10.44663,0 L 82.462246,145.40235 a 7.387684,7.387684 0 0 1 0,-10.44662 7.387684,7.387684 0 0 1 10.446627,0 l 20.039157,20.03916 51.17099,-51.18287 a 7.387684,7.387684 0 0 1 5.22356,-2.16294 z"
       style="fill:#ffffff;stroke-width:0.958669"
       id="path9" />
    <path
       d="m 82.357715,26.458333 c -5.01401,-7.66e-4 -9.077676,4.107178 -9.077325,9.176902 v 0.0104 8.971307 h -9.074352 c -10.075517,0 -18.155145,8.077599 -18.155145,18.153164 V 189.84968 c 0,9.98482 8.079628,18.15168 18.155145,18.15168 l 23.066105,0.0921 c 20.522817,-0.0272 4.133092,23.86264 16.712017,21.05327 12.19022,-2.72257 18.44556,-18.03075 30.4754,-21.14542 h 17.28026 v 0.053 l 9.09912,-0.0277 c 26.76946,-0.0827 48.61964,-22.00069 48.61964,-48.77024 v -9.10061 h -0.0208 V 62.7711 c 0,-10.026251 -8.12885,-18.153658 -18.15514,-18.153658 h -9.07385 v -8.978244 c 3.8e-4,-5.069754 -4.06382,-9.179672 -9.07782,-9.178883 -5.01404,-7.66e-4 -9.07965,4.109129 -9.07931,9.178883 v 0.0104 8.967344 H 91.437517 v -8.97626 c 3.85e-4,-5.069723 -4.065791,-9.181653 -9.079802,-9.180864 z M 64.206038,89.998121 H 191.28214 V 150.1533 h -0.0243 v 9.10061 c 0,16.95301 -13.52036,30.51509 -30.47341,30.56754 l -7.28148,0.0242 H 64.206038 Z"
       style="baseline-shift:baseline;display:inline;overflow:visible;opacity:1;vector-effect:none;fill:currentColor;stroke-width:0.958669;stroke-linecap:round;stroke-linejoin:round;enable-background:accumulate;stop-color:#000000;stop-opacity:1"
       id="path8" />
  </g>
</svg>
