<?xml version="1.0" encoding="UTF-8" standalone="no"?>
<svg
   version="1.1"
   width="423.077px"
   height="500px"
   id="svg2261"
   sodipodi:docname="google-contacts-logo-text.svg"
   xml:space="preserve"
   inkscape:version="1.2.2 (b0a8486541, 2022-12-01)"
   xmlns:inkscape="http://www.inkscape.org/namespaces/inkscape"
   xmlns:sodipodi="http://sodipodi.sourceforge.net/DTD/sodipodi-0.dtd"
   xmlns="http://www.w3.org/2000/svg"
   xmlns:svg="http://www.w3.org/2000/svg"><defs
     id="defs2265" /><sodipodi:namedview
     id="namedview2263"
     pagecolor="#ffffff"
     bordercolor="#000000"
     borderopacity="0.25"
     inkscape:showpageshadow="2"
     inkscape:pageopacity="0.0"
     inkscape:pagecheckerboard="0"
     inkscape:deskcolor="#d1d1d1"
     showgrid="false"
     inkscape:zoom="1.684"
     inkscape:cx="206.35392"
     inkscape:cy="379.15677"
     inkscape:window-width="1920"
     inkscape:window-height="1043"
     inkscape:window-x="1920"
     inkscape:window-y="0"
     inkscape:window-maximized="1"
     inkscape:current-layer="svg2261" /><path
     fill="#86a9ff"
     d="m 52.537834,292.4453 c -17.024159,0 -30.796415,13.77206 -30.796415,30.79641 v 12.93459 c 0,3.06108 2.482261,5.54334 5.543339,5.54334 H 42.067061 L 56.849363,292.4453 Z"
     id="path2253"
     style="stroke-width:0.19217" /><path
     fill="#578cff"
     d="m 103.04418,312.77094 c 0,-11.23465 -9.091184,-20.32564 -20.325647,-20.32564 H 67.936234 v 49.27434 h 14.782299 c 11.234657,0 20.325647,-9.09119 20.325647,-20.32564"
     id="path2255"
     style="stroke-width:0.19217" /><path
     fill="#0057cc"
     d="m 36.523721,312.77094 c 0,-11.23465 9.091184,-20.32564 20.325642,-20.32564 h 11.086681 c 11.234651,0 20.325639,9.09118 20.325639,20.32564 v 8.62306 c 0,11.23465 -9.091189,20.32564 -20.325639,20.32564 H 42.067061 c -3.061078,0 -5.54334,-2.48226 -5.54334,-5.54334 z"
     id="path2257"
     style="stroke-width:0.19217" /><circle
     fill="#0057cc"
     cx="62.3927"
     cy="264.72839"
     id="circle2259"
     style="stroke-width:0.19217"
     r="19.093832" /><text
     x="116.50902"
     y="325.42874"
     font-family="'Google Sans', sans-serif"
     font-size="57.4183px"
     fill="#000000"
     id="text2393"
     style="fill:#454545;fill-opacity:1;stroke-width:1.19622">Contacts</text></svg>
